<svg width="100" height="100" viewBox="0 0 100 100" fill="none" xmlns="http://www.w3.org/2000/svg">
<rect x="29" y="13" width="39" height="63" fill="white"/>
<path d="M64.9999 4.16602H31.6665C28.9039 4.16602 26.2544 5.26348 24.3008 7.21699C22.3473 9.17049 21.2499 11.82 21.2499 14.5827V85.416C21.2499 88.1787 22.3473 90.8282 24.3008 92.7817C26.2544 94.7352 28.9039 95.8327 31.6665 95.8327H64.9999C67.7626 95.8327 70.4121 94.7352 72.3656 92.7817C74.3191 90.8282 75.4165 88.1787 75.4165 85.416V14.5827C75.4165 11.82 74.3191 9.17049 72.3656 7.21699C70.4121 5.26348 67.7626 4.16602 64.9999 4.16602ZM48.3332 91.666C44.8749 91.666 42.0832 88.8743 42.0832 85.416C42.0832 81.9577 44.8749 79.166 48.3332 79.166C51.7915 79.166 54.5832 81.9577 54.5832 85.416C54.5832 88.8743 51.7915 91.666 48.3332 91.666ZM67.0832 74.9993H29.5832V16.666H67.0832V74.9993Z" fill="#0C3073"/>
<g clip-path="url(#clip0_189_386)">
<path fill-rule="evenodd" clip-rule="evenodd" d="M58.9953 50.0467C56.0562 53.4515 49.4958 57.5822 48 58.2157C46.5689 58.8217 46.7112 57.9057 46.7721 57.5133L46.7798 57.4634C46.806 57.3227 46.8716 56.9223 46.9766 56.2625C47.0291 55.893 47.0815 55.3387 46.9372 54.9824C46.7798 54.5865 46.1631 54.3885 45.7038 54.2829C38.9728 53.3987 34 48.661 34 43.0126C34 36.7176 40.2718 31.584 48 31.584C55.7151 31.584 62 36.7176 62 43.0126C62 45.5333 61.0159 47.8032 58.9953 50.0467ZM57.1234 46.4309H53.1871C53.0428 46.4309 52.9247 46.3121 52.9247 46.167V46.1538V40.0171C52.9247 39.872 53.0428 39.7532 53.1871 39.7532H57.1234C57.2677 39.7532 57.3858 39.872 57.3858 40.0171V41.0201C57.3858 41.1653 57.2677 41.2841 57.1234 41.2841H54.4467V42.3266H57.1234C57.2677 42.3266 57.3858 42.4454 57.3858 42.5906V43.5935C57.3858 43.7387 57.2677 43.8575 57.1234 43.8575H54.4467V44.9001H57.1234C57.2677 44.9001 57.3858 45.0188 57.3858 45.164V46.167C57.3858 46.3121 57.2677 46.4309 57.1234 46.4309ZM38.6361 46.4309H38.6492H42.5723C42.7167 46.4309 42.8348 46.3121 42.8348 46.167V45.164C42.8348 45.0188 42.7167 44.9001 42.5723 44.9001H39.8957V40.0171C39.8957 39.872 39.7776 39.7532 39.6333 39.7532H38.6361C38.4917 39.7532 38.3736 39.872 38.3736 40.0171V46.1538V46.167C38.3736 46.3121 38.4917 46.4309 38.6361 46.4309ZM44.9338 39.7532H43.9369C43.792 39.7532 43.6745 39.8714 43.6745 40.0171V46.167C43.6745 46.3127 43.792 46.4309 43.9369 46.4309H44.9338C45.0787 46.4309 45.1962 46.3127 45.1962 46.167V40.0171C45.1962 39.8714 45.0787 39.7532 44.9338 39.7532ZM51.9669 46.167V40.0171C51.9669 39.872 51.8488 39.7532 51.6914 39.7532H50.7073C50.563 39.7532 50.4318 39.872 50.4318 40.0171V43.6595L47.637 39.872C47.637 39.8632 47.6327 39.8544 47.6239 39.8456L47.5977 39.8192L47.5845 39.806H47.5714C47.5714 39.7972 47.5671 39.7928 47.5583 39.7928V39.7796H47.5321L47.5189 39.7664H47.5058C47.4971 39.7664 47.4927 39.762 47.4927 39.7532H47.4796H47.4665H47.4533H47.4402H47.4271H47.414H46.4299C46.2856 39.7532 46.1544 39.872 46.1544 40.0171V46.167C46.1544 46.3121 46.2856 46.4309 46.4299 46.4309H47.414C47.5714 46.4309 47.6895 46.3121 47.6895 46.167V42.5114L50.4843 46.3121C50.5018 46.3385 50.5236 46.3605 50.5499 46.3781H50.563C50.563 46.3869 50.5674 46.3913 50.5761 46.3913L50.5892 46.4045H50.6024H50.6155V46.4177H50.6417C50.6592 46.4265 50.6811 46.4309 50.7073 46.4309H51.6914C51.8488 46.4309 51.9669 46.3121 51.9669 46.167Z" fill="#06C755"/>
</g>
<defs>
<clipPath id="clip0_189_386">
<rect width="28" height="28" fill="white" transform="translate(34 31)"/>
</clipPath>
</defs>
</svg>
